<?xml version="1.0" encoding="UTF-8" standalone="no"?>
<svg
   version="1.1"
   id="Layer_1"
   x="0px"
   y="0px"
   width="100%"
   viewBox="0 0 834 293"
   enable-background="new 0 0 834 293"
   xml:space="preserve"
   sodipodi:docname="file.svg"
   inkscape:version="1.4 (86a8ad7, 2024-10-11)"
   xmlns:inkscape="http://www.inkscape.org/namespaces/inkscape"
   xmlns:sodipodi="http://sodipodi.sourceforge.net/DTD/sodipodi-0.dtd"
   xmlns="http://www.w3.org/2000/svg"
   xmlns:svg="http://www.w3.org/2000/svg"><defs
   id="defs18" /><sodipodi:namedview
   id="namedview18"
   pagecolor="#ffffff"
   bordercolor="#000000"
   borderopacity="0.25"
   inkscape:showpageshadow="2"
   inkscape:pageopacity="0.0"
   inkscape:pagecheckerboard="0"
   inkscape:deskcolor="#d1d1d1"
   showgrid="false"
   inkscape:zoom="1.4142136"
   inkscape:cx="325.62267"
   inkscape:cy="104.29825"
   inkscape:window-width="1920"
   inkscape:window-height="991"
   inkscape:window-x="-9"
   inkscape:window-y="-9"
   inkscape:window-maximized="1"
   inkscape:current-layer="Layer_1"
   showguides="true"><sodipodi:guide
     position="516.77113,97.515537"
     orientation="1,0"
     id="guide1"
     inkscape:locked="false" /><sodipodi:guide
     position="531.65625,62.25"
     orientation="0,-1"
     id="guide2"
     inkscape:locked="false" /><sodipodi:guide
     position="545.84375,130.5"
     orientation="0,-1"
     id="guide3"
     inkscape:locked="false" /><sodipodi:guide
     position="549.68713,190.64629"
     orientation="0,-1"
     id="guide4"
     inkscape:locked="false" /><sodipodi:guide
     position="621.90041,197.54058"
     orientation="0,-1"
     id="guide5"
     inkscape:locked="false" /><sodipodi:guide
     position="585.625,242.75"
     orientation="1,0"
     id="guide6"
     inkscape:locked="false" /><sodipodi:guide
     position="648.60474,181.8627"
     orientation="1,0"
     id="guide7"
     inkscape:locked="false" /><sodipodi:guide
     position="683.875,291.25"
     orientation="0,-1"
     id="guide8"
     inkscape:locked="false" /><sodipodi:guide
     position="674.21875,136.78125"
     orientation="0,-1"
     id="guide9"
     inkscape:locked="false" /></sodipodi:namedview>





<path
   fill="#1BABE3"
   opacity="1.000000"
   stroke="none"
   d=" M835.000000,271.531342   C832.629089,279.588379 829.317383,286.295990 821.444031,289.895630   C804.933533,297.444122 786.722107,285.432220 786.810791,268.497406   C787.233337,187.768219 787.118469,107.035225 786.850220,26.304735   C786.816711,16.209908 793.974487,7.239146 802.461304,4.201246   C811.009644,1.141299 824.782532,3.578467 829.601929,12.161998   C831.474487,15.497199 832.754333,19.165236 834.652100,22.840828   C835.000000,105.687561 835.000000,188.375122 835.000000,271.531342  z"
   id="path6"
   inkscape:label="I" />
<path
   fill="#695ea2"
   opacity="1"
   stroke="none"
   d="m 702.05859,22.902348 c 3.64405,13.272129 7.32959,26.533035 10.92322,39.818817 6.87903,25.432399 13.71417,50.876655 20.55158,76.320295 5.40295,20.10547 10.82653,40.20556 16.15918,60.32971 5.49987,20.75542 10.86962,41.54532 16.35638,62.30424 3.5481,13.42405 -1.79157,27.10029 -15.91327,31.99183 C 745.64313,294 741.28619,294 736.46466,294 721.82794,289.00113 718.99225,276.54132 715.9361,264.01056 710.75229,242.75569 687.13011,158.12469 678.06714,121.63841 c 0.0854,-1.74073 0.007,-3.11034 0.34649,-4.36734 5.87018,-21.754591 11.97352,-43.448278 17.61793,-65.260847 2.47918,-9.580951 4.04602,-19.398014 6.02703,-29.107875 z"
   id="path7"
   inkscape:label="A2"
   sodipodi:nodetypes="cssssccsccsc" />



<path
   id="path11"
   d="m 678.09375,1.9550781 c -1.11327,-0.00936 -2.19335,0.054823 -3.2207,0.1875 -10.32819,1.333836 -18.3186,7.7079154 -20.97461,18.5527339 -2.02299,8.26025 -7.03414,26.266839 -18.90034,68.833984 -14.6754,57.109974 -30.20107,114.011764 -45.13672,171.060544 -2.48914,9.54913 -1.28326,18.49244 6.80859,25.67188 12.72364,11.28901 33.89716,7.52459 40.11524,-10.10547 14.03415,-51.31138 28.64132,-102.43063 41.22656,-154.12695 0.14154,-2.13085 0.0632,-3.50082 0.40234,-4.75782 5.87018,-21.754588 11.97278,-43.449146 17.61719,-65.261715 2.47918,-9.580951 4.04657,-19.397906 6,-29.498047 -0.90375,-2.818999 -1.63654,-5.312334 -2.68164,-7.666016 -4.0621,-9.14841 -13.46302,-12.8250933 -21.25591,-12.8906239 z"
   style="fill:#b4388d;fill-opacity:1"
   sodipodi:nodetypes="sssssssccscss"
   inkscape:label="A1" /><path
   fill="#ababab"
   opacity="1"
   stroke="none"
   d="m 482.46063,294 c -5.54416,-0.98502 -10.70587,-1.67786 -15.69562,-3.01331 -11.93466,-3.19412 -18.43905,-13.36706 -18.682,-25.02026 -0.58918,-28.25963 -0.79785,-56.52776 -1.0618,-84.79337 C 446.89737,167.91016 447,154.64514 447,141.03184 h -28.92239 c 0,-8.07435 -0.0811,-15.82637 0.11801,-23.5712 0.0213,-0.82788 1.66339,-2.29496 2.57678,-2.31333 8.78171,-0.17661 17.56839,-0.10577 26.22772,-0.10577 0,-8.52694 0.12857,-17.724363 -0.0637,-26.915068 -0.0763,-3.647483 1.14966,-5.630943 4.61759,-7.077804 9.41043,-3.926209 18.64645,-8.270546 28.52929,-12.708496 v 46.662898 c 10.87592,0 21.46961,0.01 32.06333,-0.006 3.45697,-0.005 5.05426,1.38055 4.92132,5.12118 -0.24066,6.77051 -0.0682,13.55568 -0.0682,20.82624 H 480 v 5.79091 c 0,33.98188 -0.17712,67.9651 0.0794,101.94505 0.11728,15.52922 7.08145,18.4973 19.05923,19.25664 5.71994,0.36261 11.48196,0.0624 17.84232,0.0624 0,6.51406 0.21222,13.64379 -0.21045,20.73571 -0.0698,1.17182 -2.82202,2.9068 -4.50043,3.12903 -5.88455,0.77927 -11.84164,1.01105 -18.02063,1.79309 C 490.3071,294 486.61417,294 482.46063,294 Z"
   id="path8"
   inkscape:label="t"
   sodipodi:nodetypes="csssccsscssccssccssscsccc" /><path
   fill="#ababab"
   opacity="1"
   stroke="none"
   d="m 328.46866,294 c -4.56775,-1.93375 -9.03485,-3.34128 -12.69562,-5.90176 -10.21811,-7.14698 -15.72556,-17.47687 -18.44867,-29.46176 -4.26245,-18.75968 -2.76758,-36.76354 7.6499,-53.31304 4.90625,-7.79416 12.47104,-12.62566 20.86313,-16.23032 12.67429,-5.44398 26.09073,-6.54602 39.63126,-7.11135 6.88742,-0.28757 13.7669,-0.76517 21.24856,-1.19094 0,-5.17885 0.14154,-11.22632 -0.0609,-17.26225 -0.0982,-2.92886 -0.73831,-5.85637 -1.30975,-8.74959 -2.26593,-11.4724 -9.77887,-17.20366 -20.94251,-18.48314 -11.32599,-1.29811 -25.21161,1.38266 -29.5032,14.36087 -1.62476,4.91336 -1.82621,10.29737 -2.75504,15.945 h -31.94766 c -0.92978,-11.83997 1.82953,-22.44045 8.01309,-32.47519 8.73502,-14.17524 22.25199,-19.2267 37.72699,-21.16991 15.79965,-1.98398 31.37042,-1.87109 46.15592,5.00058 14.03274,6.52181 22.08789,17.8799 24.77212,32.8445 1.13004,6.3 1.065,12.86091 1.08823,19.30488 0.10443,28.98775 -0.1965,57.97922 0.1781,86.96251 0.12939,10.01398 1.80905,20.00662 2.73654,30.01306 0.13345,1.43967 0.0185,2.90232 0.0185,4.63425 h -31.46832 c -0.43472,-6.63956 -0.86316,-13.18335 -1.37311,-20.97217 -7.15121,10.68335 -14.46063,19.69638 -26.86007,22.94397 C 350.31244,294 339.62488,294 328.46866,294 m 58.51758,-86.82272 c -0.25888,-0.5127 -0.54587,-1.48594 -0.77262,-1.47211 -11.85812,0.72359 -23.77853,0.996 -35.54583,2.47873 -11.90091,1.49959 -20.55936,9.60911 -22.31958,20.60837 -0.99567,6.22177 -0.9567,12.79284 -0.23029,19.07319 2.53363,21.90606 24.73184,25.04576 38.9165,18.40047 9.88346,-4.63025 13.93103,-14.03503 16.88779,-23.80626 3.39633,-11.22404 3.26102,-22.82658 3.06403,-35.28239 z"
   id="path5"
   sodipodi:nodetypes="cssssscssssccssssssscccccccsscssc"
   inkscape:label="a" /><path
   fill="#ababab"
   opacity="1"
   stroke="none"
   d="M 161,109 V 40.917625 h 31.83455 v 92.805185 c 3.54222,-3.85359 6.40495,-7.36063 9.67093,-10.43997 6.98361,-6.58454 15.76028,-9.79555 24.98466,-10.82482 11.52736,-1.28623 23.10819,-1.16041 34.12174,3.77526 14.6958,6.58584 21.7239,18.72732 24.24356,33.77388 1.38489,8.27008 1.99963,16.75412 2.05249,25.14741 0.21921,34.82111 0.0926,69.64438 0.0918,104.46686 C 287.99948,292 287.99808,292 275.60123,292 c -5.33167,0 -10.67847,-0.24759 -15.99033,0.0767 -4.41235,0.26938 -5.72246,-1.31372 -5.69658,-5.69336 0.16739,-28.32349 0.0857,-56.64848 0.0857,-84.97299 -2e-5,-11.82965 0.23981,-23.66657 -0.11855,-35.48534 -0.1425,-4.69981 -1.15007,-9.50546 -2.57919,-14.00389 -2.26367,-7.12521 -7.30322,-11.82533 -14.81796,-13.08444 -12.31865,-2.06404 -24.24816,-1.84135 -33.32987,8.58234 -6.32905,7.26431 -8.96162,16.23567 -9.03383,25.533 C 193.82953,210.43808 194,247.92772 194,285.41605 v 6.23855 h -33 z"
   id="path10"
   inkscape:label="h"
   sodipodi:nodetypes="ccccsssscsssssssssssccc" /><path
   fill="#ABABAB"
   opacity="1.000000"
   stroke="none"
   d=" M1.000000,105.468658   C3.009869,97.777267 4.845878,90.500732 7.061473,83.341667   C14.362653,59.749966 30.840746,46.596069 54.192810,39.695122   C69.337791,35.219513 84.384117,37.076206 99.338699,37.519539   C106.918365,37.744244 114.783730,42.534023 121.745773,46.589069   C139.039169,56.661617 146.525131,72.853020 147.991699,92.256950   C148.498703,98.964973 148.902069,105.680840 149.392761,112.988617   C137.317566,112.988617 126.197418,113.097031 115.087486,112.809837   C114.051689,112.783058 112.382660,110.336502 112.204308,108.868126   C111.547882,103.463379 111.786285,97.939064 110.983948,92.564850   C107.969833,72.375626 98.423721,68.519768 80.870277,67.158928   C69.284943,66.260765 58.248299,68.840118 49.083046,76.929504   C43.030136,82.271889 40.278740,89.413620 39.205578,96.836159   C37.509071,108.569984 36.350975,120.464661 36.136356,132.312485   C35.686710,157.134796 36.002563,181.970947 35.998959,206.801407   C35.997051,219.953415 38.158207,232.692169 42.881145,245.014359   C47.036304,255.855209 58.458645,264.072632 70.076996,263.955414   C76.190422,263.893738 82.357063,263.795441 88.398056,262.969971   C101.048775,261.241302 108.266853,252.695206 111.770363,241.381805   C114.472420,232.656403 115.389931,223.378357 117.319687,213.191071   C127.962585,213.191071 139.814407,213.191071 152.098434,213.191071   C151.684769,234.061340 150.578308,254.073883 137.035538,270.930756   C126.556786,283.973755 112.729134,290.882629 96.215134,293.674713   C83.645775,294.000000 71.291542,294.000000 58.254112,293.675049   C32.401253,289.769470 13.643350,271.199188 7.063473,247.126251   C4.708069,238.508850 3.002283,229.713913 1.000000,221.000000   C1.000000,182.645767 1.000000,144.291550 1.000000,105.468658  z"
   id="path4"
   inkscape:label="C" />







<path
   style="fill:#00adee;fill-opacity:1;stroke-width:0.76671"
   d="m 491.90353,85.474365 c -0.66924,0 -0.8444,-50.684857 -0.67709,-65.370698 0.006,-0.323903 3.49763,-13.466073 14.72324,-18.442684 l 66.87497,0.217641 c 11.74114,4.1580024 12.88283,16.393492 12.88283,16.393492 l -0.06,67.177175 c 0.23383,6.78116 8.2692,8.038909 8.2692,8.038909 l 41.91008,-0.0044 c 9.87126,1.70766 12.80012,15.00684 12.78907,15.2941 0,0 -0.0616,22.36525 -0.0474,33.47607 3.01157,11.27054 8.74747,13.3137 13.26482,13.99677 l 25.26242,-0.0122 20.07847,74.63681 c 0,0 -48.18516,0.5123 -50.36018,0.34153 -10.7078,-2.56148 -11.50891,-15.12088 -11.50891,-15.12088 l 0.13186,-41.23177 c -1.51992,-9.58716 -11.71166,-11.78282 -11.71166,-11.78282 l -34.46576,-0.34152 c -14.72325,5.12296 -14.55594,13.99048 -14.55594,13.99048 l -0.16731,37.75148 c -3.84812,13.31972 -11.54435,14.34431 -11.54435,14.34431 h -46.01012 c -7.52893,-2.73225 -10.20589,-11.95359 -10.20589,-11.95359 l -0.0755,-40.50269 c 0.66925,-11.95361 14.29681,-15.84995 14.29681,-15.84995 l 36.28405,-0.0391 c 15.55979,-2.21995 13.64272,-18.34512 13.64272,-18.34512 l 0.0403,-33.58697 c 0,0 -1.41501,-8.54292 -10.41758,-8.19217 l -62.08746,0.007 c -10.109,-4.464665 -14.82419,-11.019772 -16.55569,-14.889155 z"
   id="path1"
   sodipodi:nodetypes="ccccccccccccccccccccccccccccccc" /></svg>
