<?xml version="1.0" encoding="UTF-8" standalone="no"?>
<svg
    xmlns="http://www.w3.org/2000/svg"
    xmlSpace="preserve"
    id="Layer_1"
    width="100%"
    x="0"
    y="0"
    version="1.1"
    viewBox="0 0 834 293"
  >
    <path
      id="path6"
      fill="#1BABE3"
      stroke="none"
      d="M835 271.531c-2.37 8.057-5.683 14.765-13.556 18.365-16.51 7.548-34.722-4.464-34.633-21.399.422-80.729.307-161.462.04-242.192-.034-10.095 7.123-19.066 15.61-22.104 8.549-3.06 22.322-.623 27.14 7.961 1.873 3.335 3.153 7.003 5.051 10.679.348 82.847.348 165.534.348 248.69"
      opacity="1"
    ></path>
    <path
      id="path7"
      fill="#695ea2"
      stroke="none"
      d="M702.059 22.902c3.644 13.272 7.33 26.533 10.923 39.82 6.879 25.432 13.714 50.876 20.551 76.32 5.403 20.105 10.827 40.205 16.16 60.33 5.5 20.755 10.87 41.544 16.356 62.303 3.548 13.424-1.792 27.1-15.913 31.992-4.493.333-8.85.333-13.671.333-14.637-4.999-17.473-17.459-20.529-29.99-5.184-21.254-28.806-105.885-37.869-142.372.086-1.74.007-3.11.347-4.367 5.87-21.755 11.973-43.448 17.618-65.26 2.479-9.582 4.046-19.399 6.027-29.109"
      opacity="1"
    ></path>
    <path
      id="path11"
      fill="#b4388d"
      fillOpacity="1"
      d="M678.094 1.955a24 24 0 0 0-3.221.188c-10.328 1.333-18.319 7.707-20.975 18.552-2.023 8.26-7.034 26.267-18.9 68.834-14.675 57.11-30.201 114.012-45.137 171.06-2.489 9.55-1.283 18.493 6.809 25.673 12.724 11.289 33.897 7.524 40.115-10.106 14.034-51.311 28.642-102.43 41.227-154.127.141-2.13.063-3.5.402-4.758 5.87-21.754 11.973-43.449 17.617-65.261 2.48-9.581 4.047-19.398 6-29.498-.903-2.82-1.636-5.313-2.681-7.666-4.062-9.149-13.463-12.825-21.256-12.89"
    ></path>
    <path
      id="path8"
      fill="#ababab"
      stroke="none"
      d="M482.46 294c-5.544-.985-10.705-1.678-15.695-3.013-11.935-3.194-18.439-13.367-18.682-25.02-.59-28.26-.798-56.528-1.062-84.794-.124-13.263-.021-26.528-.021-40.141h-28.922c0-8.075-.081-15.827.118-23.571.02-.828 1.663-2.295 2.576-2.314 8.782-.176 17.569-.105 26.228-.105 0-8.527.129-17.725-.064-26.916-.076-3.647 1.15-5.63 4.618-7.077 9.41-3.927 18.646-8.27 28.53-12.709v46.663c10.875 0 21.469.01 32.063-.006 3.457-.005 5.054 1.38 4.92 5.121-.24 6.77-.067 13.556-.067 20.826h-37v5.791c0 33.982-.177 67.965.08 101.945.117 15.53 7.08 18.498 19.059 19.257 5.72.363 11.482.062 17.842.062 0 6.515.212 13.644-.21 20.736-.07 1.172-2.823 2.907-4.5 3.13-5.885.778-11.843 1.01-18.022 1.792-3.942.343-7.635.343-11.788.343"
      opacity="1"
    ></path>
    <path
      id="path5"
      fill="#ababab"
      stroke="none"
      d="M328.469 294c-4.568-1.934-9.035-3.341-12.696-5.902-10.218-7.147-15.726-17.477-18.449-29.462-4.262-18.76-2.767-36.763 7.65-53.313 4.907-7.794 12.471-12.625 20.863-16.23 12.675-5.444 26.091-6.546 39.632-7.111 6.887-.288 13.767-.765 21.248-1.191 0-5.179.142-11.226-.06-17.262-.099-2.93-.739-5.857-1.31-8.75-2.266-11.472-9.78-17.204-20.943-18.483-11.326-1.298-25.212 1.383-29.503 14.36-1.625 4.914-1.826 10.298-2.755 15.946h-31.948c-.93-11.84 1.83-22.44 8.013-32.475 8.735-14.176 22.252-19.227 37.727-21.17 15.8-1.984 31.37-1.871 46.156 5 14.033 6.522 22.088 17.88 24.772 32.845 1.13 6.3 1.065 12.86 1.089 19.305.104 28.987-.197 57.979.178 86.962.129 10.014 1.809 20.007 2.736 30.013.134 1.44.019 2.902.019 4.634h-31.469l-1.373-20.972c-7.151 10.684-14.46 19.697-26.86 22.944-10.874.312-21.561.312-32.717.312m58.517-86.823c-.259-.512-.546-1.486-.772-1.472-11.859.724-23.779.996-35.546 2.479-11.901 1.5-20.56 9.609-22.32 20.608-.995 6.222-.956 12.793-.23 19.073 2.534 21.907 24.732 25.046 38.916 18.4 9.884-4.63 13.931-14.034 16.888-23.805 3.397-11.224 3.261-22.827 3.064-35.283"
      opacity="1"
    ></path>
    <path
      id="path10"
      fill="#ababab"
      stroke="none"
      d="M161 109V40.918h31.835v92.805c3.542-3.854 6.405-7.36 9.67-10.44 6.984-6.585 15.76-9.796 24.985-10.825 11.527-1.286 23.108-1.16 34.122 3.775 14.696 6.586 21.724 18.728 24.243 33.774 1.385 8.27 2 16.754 2.053 25.148.22 34.82.093 69.644.092 104.466C288 292 287.998 292 275.6 292c-5.331 0-10.678-.248-15.99.077-4.412.27-5.723-1.314-5.697-5.694.168-28.323.086-56.648.086-84.973 0-11.83.24-23.666-.119-35.485-.142-4.7-1.15-9.505-2.579-14.004-2.263-7.125-7.303-11.825-14.818-13.084-12.318-2.064-24.248-1.842-33.33 8.582-6.329 7.264-8.961 16.236-9.033 25.533-.291 37.486-.121 74.976-.121 112.464v6.239h-33z"
      opacity="1"
    ></path>
    <path
      id="path4"
      fill="#ABABAB"
      stroke="none"
      d="M1 105.469C3.01 97.777 4.846 90.5 7.061 83.342c7.302-23.592 23.78-36.746 47.132-43.647 15.145-4.475 30.191-2.619 45.146-2.175 7.58.224 15.445 5.014 22.407 9.07 17.293 10.072 24.78 26.263 26.246 45.667.507 6.708.91 13.424 1.4 20.732-12.074 0-23.195.108-34.305-.18-1.035-.026-2.704-2.472-2.883-3.94-.656-5.406-.418-10.93-1.22-16.304-3.014-20.19-12.56-24.045-30.114-25.406-11.585-.898-22.622 1.681-31.787 9.77-6.053 5.343-8.804 12.485-9.877 19.907-1.697 11.734-2.855 23.629-3.07 35.476-.45 24.823-.133 49.659-.137 74.49-.002 13.151 2.16 25.89 6.882 38.212 4.155 10.841 15.578 19.059 27.196 18.941 6.113-.061 12.28-.16 18.321-.985 12.65-1.729 19.869-10.275 23.372-21.588 2.702-8.726 3.62-18.004 5.55-28.19h34.778c-.413 20.87-1.52 40.882-15.062 57.739-10.48 13.043-24.307 19.952-40.82 22.744-12.57.325-24.924.325-37.962 0-25.853-3.906-44.61-22.476-51.19-46.549C4.707 238.51 3.001 229.714 1 221z"
      opacity="1"
    ></path>
    <path
      id="path1"
      fill="#00adee"
      fillOpacity="1"
      strokeWidth="0.767"
      d="M491.904 85.474c-.67 0-.845-50.684-.678-65.37.006-.324 3.498-13.466 14.724-18.443l66.875.218c11.74 4.158 12.882 16.393 12.882 16.393l-.06 67.177c.234 6.781 8.27 8.04 8.27 8.04l41.91-.005c9.871 1.707 12.8 15.007 12.789 15.294 0 0-.062 22.365-.048 33.476 3.012 11.27 8.748 13.314 13.265 13.997l25.263-.012 20.078 74.636s-48.185.513-50.36.342c-10.708-2.562-11.509-15.121-11.509-15.121l.132-41.232c-1.52-9.587-11.712-11.783-11.712-11.783l-34.466-.341c-14.723 5.123-14.555 13.99-14.555 13.99l-.168 37.752c-3.848 13.32-11.544 14.344-11.544 14.344h-46.01c-7.53-2.732-10.206-11.953-10.206-11.953l-.076-40.503c.67-11.954 14.297-15.85 14.297-15.85l36.284-.04c15.56-2.22 13.643-18.344 13.643-18.344l.04-33.587s-1.415-8.543-10.417-8.192l-62.088.007c-10.109-4.465-14.824-11.02-16.555-14.89"
    ></path>
  </svg>