<?xml version="1.0" encoding="UTF-8" standalone="no"?>
<svg
   version="1.1"
   id="Layer_1"
   x="0px"
   y="0px"
   width="979.99402"
   viewBox="0 0 979.99402 292.33902"
   enable-background="new 0 0 834 293"
   xml:space="preserve"
   sodipodi:docname="imageai-logo.svg"
   inkscape:version="1.4 (86a8ad7, 2024-10-11)"
   height="292.33902"
   xmlns:inkscape="http://www.inkscape.org/namespaces/inkscape"
   xmlns:sodipodi="http://sodipodi.sourceforge.net/DTD/sodipodi-0.dtd"
   xmlns="http://www.w3.org/2000/svg"
   xmlns:svg="http://www.w3.org/2000/svg"><defs
   id="defs18" /><sodipodi:namedview
   id="namedview18"
   pagecolor="#ffffff"
   bordercolor="#000000"
   borderopacity="0.25"
   inkscape:showpageshadow="2"
   inkscape:pageopacity="0.0"
   inkscape:pagecheckerboard="0"
   inkscape:deskcolor="#d1d1d1"
   showgrid="false"
   inkscape:zoom="1"
   inkscape:cx="371.5"
   inkscape:cy="54.5"
   inkscape:window-width="1920"
   inkscape:window-height="991"
   inkscape:window-x="-9"
   inkscape:window-y="-9"
   inkscape:window-maximized="1"
   inkscape:current-layer="Layer_1"
   showguides="true"><sodipodi:guide
     position="661.76515,99.17652"
     orientation="1,0"
     id="guide1"
     inkscape:locked="false" /><sodipodi:guide
     position="676.65027,63.910983"
     orientation="0,-1"
     id="guide2"
     inkscape:locked="false" /><sodipodi:guide
     position="690.83777,132.16098"
     orientation="0,-1"
     id="guide3"
     inkscape:locked="false" /><sodipodi:guide
     position="694.68115,192.30727"
     orientation="0,-1"
     id="guide4"
     inkscape:locked="false" /><sodipodi:guide
     position="766.89443,199.20156"
     orientation="0,-1"
     id="guide5"
     inkscape:locked="false" /><sodipodi:guide
     position="730.61902,244.41098"
     orientation="1,0"
     id="guide6"
     inkscape:locked="false" /><sodipodi:guide
     position="793.59876,183.52368"
     orientation="1,0"
     id="guide7"
     inkscape:locked="false" /><sodipodi:guide
     position="828.86902,292.91098"
     orientation="0,-1"
     id="guide8"
     inkscape:locked="false" /><sodipodi:guide
     position="819.21277,138.44223"
     orientation="0,-1"
     id="guide9"
     inkscape:locked="false" /></sodipodi:namedview>





<path
   fill="#1babe3"
   opacity="1"
   stroke="none"
   d="m 979.99402,269.87036 c -2.37091,8.05704 -5.68262,14.76465 -13.55597,18.36429 -16.5105,7.54849 -34.72192,-4.46341 -34.63324,-21.39822 0.42255,-80.72919 0.30768,-161.46219 0.0394,-242.192678 -0.0335,-10.094827 7.12427,-19.065589 15.61108,-22.103489 8.54834,-3.059947 22.32123,-0.622779 27.14063,7.960752 1.87256,3.335201 3.1524,7.003238 5.05017,10.67883 0.34793,82.846735 0.34793,165.534295 0.34793,248.690515 z"
   id="path6"
   inkscape:label="I" />
<path
   fill="#695ea2"
   opacity="1"
   stroke="none"
   d="m 847.05261,21.241365 c 3.64405,13.272129 7.32959,26.533035 10.92322,39.818817 6.87903,25.432399 13.71417,50.876658 20.55158,76.320298 5.40295,20.10547 10.82653,40.20556 16.15918,60.32971 5.49987,20.75542 10.86962,41.54532 16.35638,62.30424 3.5481,13.42405 -1.79157,27.10029 -15.91327,31.99183 -4.49255,0.33276 -8.84949,0.33276 -13.67102,0.33276 -14.63672,-4.99887 -17.47241,-17.45868 -20.52856,-29.98944 -5.18381,-21.25487 -28.80599,-105.88587 -37.86896,-142.37215 0.0854,-1.74073 0.007,-3.11034 0.34649,-4.36734 5.87018,-21.754594 11.97352,-43.448281 17.61793,-65.26085 2.47918,-9.580951 4.04602,-19.398014 6.02703,-29.107875 z"
   id="path7"
   inkscape:label="A2"
   sodipodi:nodetypes="cssssccsccsc" />



<path
   id="path11"
   d="m 823.08777,0.2940951 c -1.11327,-0.00936 -2.19335,0.054823 -3.2207,0.1875 -10.32819,1.333836 -18.3186,7.7079154 -20.97461,18.5527339 -2.02299,8.26025 -7.03414,26.266839 -18.90034,68.833984 -14.6754,57.109977 -30.20107,114.011767 -45.13672,171.060547 -2.48914,9.54913 -1.28326,18.49244 6.80859,25.67188 12.72364,11.28901 33.89716,7.52459 40.11524,-10.10547 14.03415,-51.31138 28.64132,-102.43063 41.22656,-154.12695 0.14154,-2.13085 0.0632,-3.50082 0.40234,-4.75782 5.87018,-21.754591 11.97278,-43.449149 17.61719,-65.261718 2.47918,-9.580951 4.04657,-19.397906 6,-29.498047 -0.90375,-2.818999 -1.63654,-5.312334 -2.68164,-7.666016 -4.0621,-9.14841 -13.46302,-12.8250933 -21.25591,-12.8906239 z"
   style="fill:#b4388d;fill-opacity:1"
   sodipodi:nodetypes="sssssssccscss"
   inkscape:label="A1" />







<path
   style="fill:#00adee;fill-opacity:1;stroke-width:0.76671"
   d="m 636.89755,83.813382 c -0.66924,0 -0.8444,-50.684857 -0.67709,-65.370698 C 636.22646,18.118781 639.71809,4.976611 650.9437,0 l 66.87497,0.217641 c 11.74114,4.1580024 12.88283,16.393492 12.88283,16.393492 l -0.06,67.177175 c 0.23383,6.78116 8.2692,8.038909 8.2692,8.038909 l 41.91008,-0.0044 c 9.87126,1.70766 12.80012,15.006843 12.78907,15.294103 0,0 -0.0616,22.36525 -0.0474,33.47607 3.01157,11.27054 8.74747,13.3137 13.26482,13.99677 l 25.26242,-0.0122 20.07847,74.63681 c 0,0 -48.18516,0.5123 -50.36018,0.34153 -10.7078,-2.56148 -11.50891,-15.12088 -11.50891,-15.12088 l 0.13186,-41.23177 c -1.51992,-9.58716 -11.71166,-11.78282 -11.71166,-11.78282 l -34.46576,-0.34152 c -14.72325,5.12296 -14.55594,13.99048 -14.55594,13.99048 l -0.16731,37.75148 c -3.84812,13.31972 -11.54435,14.34431 -11.54435,14.34431 h -46.01012 c -7.52893,-2.73225 -10.20589,-11.95359 -10.20589,-11.95359 l -0.0755,-40.50269 c 0.66925,-11.95361 14.29681,-15.84995 14.29681,-15.84995 l 36.28405,-0.0391 c 15.55979,-2.21995 13.64272,-18.34512 13.64272,-18.34512 l 0.0403,-33.58697 c 0,0 -1.41501,-8.542923 -10.41758,-8.192173 l -62.08746,0.007 c -10.109,-4.464665 -14.82419,-11.019772 -16.55569,-14.889155 z"
   id="path1"
   sodipodi:nodetypes="ccccccccccccccccccccccccccccccc" /><text
   xml:space="preserve"
   style="font-style:normal;font-variant:normal;font-weight:normal;font-stretch:normal;font-size:272.341px;font-family:Univers;-inkscape-font-specification:Univers;text-align:center;letter-spacing:-27.118px;writing-mode:lr-tb;direction:ltr;text-anchor:middle;fill:#00adee;stroke-width:10.2128"
   x="322.82596"
   y="228.03491"
   id="text1"
   inkscape:label="Image"><tspan
     sodipodi:role="line"
     id="tspan1"
     x="309.26697"
     y="228.03491"
     style="font-style:normal;font-variant:normal;font-weight:normal;font-stretch:normal;font-family:Univers;-inkscape-font-specification:Univers;letter-spacing:-27.118px;fill:#ababab;fill-opacity:1;stroke-width:10.2128">Image</tspan></text></svg>
