<?xml version="1.0" encoding="UTF-8" standalone="no"?>
<svg
   version="1.1"
   id="Layer_1"
   x="0px"
   y="0px"
   width="1053.7843"
   viewBox="0 0 1053.7843 292.33902"
   enable-background="new 0 0 834 293"
   xml:space="preserve"
   sodipodi:docname="voiceai-logo.svg"
   inkscape:version="1.4 (86a8ad7, 2024-10-11)"
   height="292.33902"
   xmlns:inkscape="http://www.inkscape.org/namespaces/inkscape"
   xmlns:sodipodi="http://sodipodi.sourceforge.net/DTD/sodipodi-0.dtd"
   xmlns="http://www.w3.org/2000/svg"
   xmlns:svg="http://www.w3.org/2000/svg"><defs
   id="defs18" /><sodipodi:namedview
   id="namedview18"
   pagecolor="#ffffff"
   bordercolor="#000000"
   borderopacity="0.25"
   inkscape:showpageshadow="2"
   inkscape:pageopacity="0.0"
   inkscape:pagecheckerboard="0"
   inkscape:deskcolor="#d1d1d1"
   showgrid="false"
   inkscape:zoom="1"
   inkscape:cx="503"
   inkscape:cy="-43.5"
   inkscape:window-width="1920"
   inkscape:window-height="991"
   inkscape:window-x="-9"
   inkscape:window-y="-9"
   inkscape:window-maximized="1"
   inkscape:current-layer="layer1"
   showguides="true"><sodipodi:guide
     position="735.55544,99.17652"
     orientation="1,0"
     id="guide1"
     inkscape:locked="false" /><sodipodi:guide
     position="750.44056,63.910983"
     orientation="0,-1"
     id="guide2"
     inkscape:locked="false" /><sodipodi:guide
     position="764.62806,132.16098"
     orientation="0,-1"
     id="guide3"
     inkscape:locked="false" /><sodipodi:guide
     position="768.47144,192.30727"
     orientation="0,-1"
     id="guide4"
     inkscape:locked="false" /><sodipodi:guide
     position="840.68472,199.20156"
     orientation="0,-1"
     id="guide5"
     inkscape:locked="false" /><sodipodi:guide
     position="804.40931,244.41098"
     orientation="1,0"
     id="guide6"
     inkscape:locked="false" /><sodipodi:guide
     position="867.38905,183.52368"
     orientation="1,0"
     id="guide7"
     inkscape:locked="false" /><sodipodi:guide
     position="902.65931,292.91098"
     orientation="0,-1"
     id="guide8"
     inkscape:locked="false" /><sodipodi:guide
     position="893.00306,138.44223"
     orientation="0,-1"
     id="guide9"
     inkscape:locked="false" /></sodipodi:namedview>





<path
   fill="#1babe3"
   opacity="1"
   stroke="none"
   d="m 1053.7843,269.87036 c -2.3709,8.05704 -5.6826,14.76465 -13.5559,18.36429 -16.5105,7.54849 -34.722,-4.46341 -34.6333,-21.39822 0.4226,-80.72919 0.3077,-161.46219 0.039,-242.192678 -0.034,-10.094827 7.1243,-19.065589 15.6111,-22.103489 8.5483,-3.059947 22.3212,-0.622779 27.1406,7.960752 1.8726,3.335201 3.1524,7.003238 5.0502,10.67883 0.3479,82.846735 0.3479,165.534295 0.3479,248.690515 z"
   id="path6"
   inkscape:label="I" />
<path
   fill="#695ea2"
   opacity="1"
   stroke="none"
   d="m 920.8429,21.241365 c 3.64405,13.272129 7.32959,26.533035 10.92322,39.818817 6.87903,25.432399 13.71417,50.876658 20.55158,76.320298 5.40295,20.10547 10.82653,40.20556 16.15918,60.32971 5.49987,20.75542 10.86962,41.54532 16.35638,62.30424 3.5481,13.42405 -1.79157,27.10029 -15.91327,31.99183 -4.49255,0.33276 -8.84949,0.33276 -13.67102,0.33276 -14.63672,-4.99887 -17.47241,-17.45868 -20.52856,-29.98944 -5.18381,-21.25487 -28.80599,-105.88587 -37.86896,-142.37215 0.0854,-1.74073 0.007,-3.11034 0.34649,-4.36734 5.87018,-21.754594 11.97352,-43.448281 17.61793,-65.26085 2.47918,-9.580951 4.04602,-19.398014 6.02703,-29.107875 z"
   id="path7"
   inkscape:label="A2"
   sodipodi:nodetypes="cssssccsccsc" />



<path
   id="path11"
   d="m 896.87806,0.2940951 c -1.11327,-0.00936 -2.19335,0.054823 -3.2207,0.1875 -10.32819,1.333836 -18.3186,7.7079154 -20.97461,18.5527339 -2.02299,8.26025 -7.03414,26.266839 -18.90034,68.833984 -14.6754,57.109977 -30.20107,114.011767 -45.13672,171.060547 -2.48914,9.54913 -1.28326,18.49244 6.80859,25.67188 12.72364,11.28901 33.89716,7.52459 40.11524,-10.10547 14.03415,-51.31138 28.64132,-102.43063 41.22656,-154.12695 0.14154,-2.13085 0.0632,-3.50082 0.40234,-4.75782 5.87018,-21.754591 11.97278,-43.449149 17.61719,-65.261718 2.47918,-9.580951 4.04657,-19.397906 6,-29.498047 -0.90375,-2.818999 -1.63654,-5.312334 -2.68164,-7.666016 -4.0621,-9.14841 -13.46302,-12.8250933 -21.25591,-12.8906239 z"
   style="fill:#b4388d;fill-opacity:1"
   sodipodi:nodetypes="sssssssccscss"
   inkscape:label="A1" />







<path
   style="fill:#00adee;fill-opacity:1;stroke-width:0.76671"
   d="m 710.68784,83.813382 c -0.66924,0 -0.8444,-50.684857 -0.67709,-65.370698 C 710.01675,18.118781 713.50838,4.976611 724.73399,0 l 66.87497,0.217641 c 11.74114,4.1580024 12.88283,16.393492 12.88283,16.393492 l -0.06,67.177175 c 0.23383,6.78116 8.2692,8.038909 8.2692,8.038909 l 41.91008,-0.0044 c 9.87126,1.70766 12.80012,15.006843 12.78907,15.294103 0,0 -0.0616,22.36525 -0.0474,33.47607 3.01157,11.27054 8.74747,13.3137 13.26482,13.99677 l 25.26242,-0.0122 20.07847,74.63681 c 0,0 -48.18516,0.5123 -50.36018,0.34153 -10.7078,-2.56148 -11.50891,-15.12088 -11.50891,-15.12088 l 0.13186,-41.23177 c -1.51992,-9.58716 -11.71166,-11.78282 -11.71166,-11.78282 l -34.46576,-0.34152 c -14.72325,5.12296 -14.55594,13.99048 -14.55594,13.99048 l -0.16731,37.75148 c -3.84812,13.31972 -11.54435,14.34431 -11.54435,14.34431 h -46.01012 c -7.52893,-2.73225 -10.20589,-11.95359 -10.20589,-11.95359 l -0.0755,-40.50269 c 0.66925,-11.95361 14.29681,-15.84995 14.29681,-15.84995 l 36.28405,-0.0391 c 15.55979,-2.21995 13.64272,-18.34512 13.64272,-18.34512 l 0.0403,-33.58697 c 0,0 -1.41501,-8.542923 -10.41758,-8.192173 l -62.08746,0.007 c -10.109,-4.464665 -14.82419,-11.019772 -16.55569,-14.889155 z"
   id="path1"
   sodipodi:nodetypes="ccccccccccccccccccccccccccccccc" /><g
   inkscape:groupmode="layer"
   id="layer1"
   inkscape:label="Text"
   transform="translate(16.999987)"><path
     style="font-size:322.892px;font-family:Univers;-inkscape-font-specification:Univers;text-align:center;letter-spacing:-20.7128px;text-anchor:middle;fill:#ababab;stroke-width:13.1725"
     d="M 21.934373,30.519279 93.97151,247.31677 169.78203,30.519279 h 35.50402 L 111.80929,284.19293 H 73.217955 L -16.999987,30.519279 Z M 253.50677,290.19601 c -27.78576,0 -49.68276,-8.34715 -65.69102,-25.04146 -16.00825,-16.80868 -24.01238,-40.07782 -24.01238,-69.80743 0,-28.01444 7.77544,-50.36883 23.32631,-67.06315 15.55088,-16.69431 36.70464,-25.04148 63.46129,-25.04148 27.09969,0 48.71083,8.57584 64.83343,25.72755 16.23695,17.03736 24.35542,39.84911 24.35542,68.43528 0,28.70052 -7.60392,51.34076 -22.81176,67.92074 -15.20784,16.57997 -36.36161,24.86995 -63.46129,24.86995 z m -55.22848,-92.10463 c 0,20.81073 5.14551,37.33354 15.43653,49.56842 10.29103,12.23488 23.55501,18.35233 39.79195,18.35233 16.00825,0 28.52899,-5.94592 37.56222,-17.83778 9.14758,-12.00619 13.72136,-28.47182 13.72136,-49.3969 0,-21.83983 -4.80248,-39.10587 -14.40742,-51.79813 -9.60496,-12.69225 -22.7546,-19.03839 -39.44891,-19.03839 -16.1226,0 -28.92921,6.28896 -38.41982,18.86688 -9.4906,12.46356 -14.23591,29.55809 -14.23591,51.28357 z M 390.17631,31.205347 V 67.395434 H 350.55587 V 31.205347 Z M 387.089,107.87345 V 284.19293 H 353.98622 V 107.87345 Z m 126.89303,56.60061 c -0.68607,-12.34923 -4.17358,-21.55397 -10.46252,-27.61424 -6.17462,-6.17461 -14.40744,-9.26191 -24.69846,-9.26191 -14.86481,0 -26.18493,5.54571 -33.96037,16.63714 -7.77544,11.09143 -11.66315,27.78576 -11.66315,50.08297 0,23.555 3.65902,41.04973 10.97709,52.4842 7.4324,11.32012 18.40948,16.98019 32.93126,16.98019 11.09143,0 20.0675,-3.316 26.92816,-9.948 6.86069,-6.74633 10.63406,-16.17977 11.32013,-28.3003 h 33.44582 c -1.37213,18.63817 -8.57584,33.84603 -21.61114,45.62352 -13.03529,11.7775 -29.50093,17.66625 -49.3969,17.66625 -25.38452,0 -44.99463,-7.8326 -58.83033,-23.49782 -13.72136,-15.77957 -20.58204,-38.07678 -20.58204,-66.89163 0,-30.07266 7.48957,-53.45614 22.46872,-70.15046 14.97916,-16.69431 34.07472,-25.04148 57.28668,-25.04148 20.12466,0 36.53312,5.54571 49.22538,16.63715 12.69225,11.09144 19.38143,25.95625 20.0675,44.59442 z m 199.41001,37.56222 H 586.64097 v 2.74427 c 0,18.98122 4.40227,33.84602 13.20681,44.59442 8.80454,10.7484 21.2681,16.1226 37.39071,16.1226 11.77749,0 21.32529,-3.0873 28.64334,-9.26191 7.31806,-6.28897 11.60598,-15.37937 12.86377,-27.27122 h 32.93128 c -1.14346,17.95212 -8.57587,32.53107 -22.29723,43.73684 -13.60701,11.20578 -31.44478,16.80867 -53.51329,16.80867 -26.98534,0 -47.39587,-7.88978 -61.23158,-23.66933 -13.8357,-15.77958 -20.75355,-38.47699 -20.75355,-68.09226 0,-30.53003 7.26089,-53.91352 21.78266,-70.15045 14.52177,-16.23695 35.04664,-24.35542 61.5746,-24.35542 25.27017,0 44.25139,7.08937 56.94364,21.26811 12.80662,14.17874 19.20991,35.33249 19.20991,63.46129 z m -33.61733,-23.15479 v -2.57276 c 0,-15.66522 -3.60186,-27.84292 -10.80558,-36.53311 -7.20371,-8.6902 -18.12362,-13.0353 -32.75974,-13.0353 -14.29309,0 -25.89907,4.80248 -34.81796,14.40742 -8.91888,9.49061 -13.37832,22.06853 -13.37832,37.73375 z"
     id="text1"
     inkscape:label="Image"
     aria-label="Voice"
     sodipodi:nodetypes="ccccccccscssscsssssscssscsccccccccccccssscscccsscssssccccsssccccssssscsccsssccc" /></g></svg>
