<svg width="14" height="14" viewBox="0 0 14 14" fill="none" xmlns="http://www.w3.org/2000/svg">
<g clip-path="url(#clip0_1222_37564)">
<path d="M7.00002 13.4999C5.53526 11.8872 3.54881 10.8427 1.39002 10.5499C1.1443 10.5227 0.917361 10.4054 0.753003 10.2208C0.588645 10.0361 0.498519 9.79709 0.500018 9.54988V1.49988C0.500009 1.35544 0.53129 1.21271 0.59171 1.08151C0.652129 0.950317 0.740253 0.833766 0.850018 0.739879C0.95785 0.6477 1.08406 0.579519 1.22027 0.539864C1.35647 0.500209 1.49956 0.489988 1.64002 0.509879C3.70431 0.852486 5.59274 1.88126 7.00002 3.42988V13.4999Z" stroke="#009EE0" stroke-linecap="round" stroke-linejoin="round"/>
<path d="M7 13.4999C8.46476 11.8872 10.4512 10.8427 12.61 10.5499C12.8557 10.5227 13.0827 10.4054 13.247 10.2208C13.4114 10.0361 13.5015 9.79709 13.5 9.54988V1.49988C13.5 1.35544 13.4687 1.21271 13.4083 1.08151C13.3479 0.950317 13.2598 0.833766 13.15 0.739879C13.0422 0.6477 12.916 0.579519 12.7798 0.539864C12.6435 0.500209 12.5005 0.489988 12.36 0.509879C10.2957 0.852486 8.40728 1.88126 7 3.42988V13.4999Z" stroke="#009EE0" stroke-linecap="round" stroke-linejoin="round"/>
</g>
<defs>
<clipPath id="clip0_1222_37564">
<rect width="14" height="14" fill="white"/>
</clipPath>
</defs>
</svg>
