<svg width="14" height="14" viewBox="0 0 14 14" fill="none" xmlns="http://www.w3.org/2000/svg">
<g clip-path="url(#clip0_1222_37120)">
<path d="M0.5 12.2499V1.74994C0.5 1.48472 0.605357 1.23037 0.792893 1.04283C0.98043 0.855293 1.23478 0.749936 1.5 0.749936H5.19C5.41843 0.743281 5.64226 0.815069 5.82421 0.95335C6.00615 1.09163 6.13525 1.28806 6.19 1.50994L6.5 2.74994H12.5C12.7652 2.74994 13.0196 2.85529 13.2071 3.04283C13.3946 3.23037 13.5 3.48472 13.5 3.74994V12.2499C13.5 12.5152 13.3946 12.7695 13.2071 12.957C13.0196 13.1446 12.7652 13.2499 12.5 13.2499H1.5C1.23478 13.2499 0.98043 13.1446 0.792893 12.957C0.605357 12.7695 0.5 12.5152 0.5 12.2499Z" stroke="#009EE0" stroke-linecap="round" stroke-linejoin="round"/>
<path d="M4.5 9L6 10L9 6" stroke="#009EE0" stroke-linecap="round" stroke-linejoin="round"/>
</g>
<defs>
<clipPath id="clip0_1222_37120">
<rect width="14" height="14" fill="white"/>
</clipPath>
</defs>
</svg>
