<svg width="14" height="14" viewBox="0 0 14 14" fill="none" xmlns="http://www.w3.org/2000/svg">
<path d="M7.49003 1.09016L9.08003 4.30016C9.1162 4.38164 9.17308 4.45221 9.24502 4.50485C9.31696 4.55748 9.40144 4.59035 9.49003 4.60016L13 5.12016C13.1017 5.13322 13.1975 5.17493 13.2763 5.24042C13.3551 5.3059 13.4137 5.39246 13.4451 5.48997C13.4766 5.58749 13.4796 5.69195 13.4539 5.79114C13.4283 5.89034 13.3749 5.98017 13.3 6.05016L10.77 8.56016C10.7055 8.62049 10.657 8.696 10.6291 8.77984C10.6011 8.86367 10.5946 8.95316 10.61 9.04016L11.22 12.5701C11.2377 12.6716 11.2265 12.7759 11.1878 12.8713C11.1491 12.9667 11.0844 13.0493 11.001 13.1098C10.9177 13.1702 10.819 13.206 10.7163 13.2132C10.6136 13.2203 10.5109 13.1985 10.42 13.1501L7.26003 11.4801C7.17912 11.4404 7.09017 11.4198 7.00003 11.4198C6.90989 11.4198 6.82095 11.4404 6.74003 11.4801L3.58003 13.1501C3.48912 13.1985 3.38647 13.2203 3.28376 13.2132C3.18105 13.206 3.0824 13.1702 2.99905 13.1098C2.91569 13.0493 2.85097 12.9667 2.81225 12.8713C2.77354 12.7759 2.76237 12.6716 2.78003 12.5701L3.39003 9.00016C3.40549 8.91316 3.39895 8.82367 3.37101 8.73984C3.34307 8.656 3.2946 8.58049 3.23003 8.52016L0.670033 6.05016C0.594296 5.97826 0.541033 5.88593 0.516697 5.78438C0.492361 5.68282 0.497997 5.57638 0.53292 5.47796C0.567844 5.37954 0.630557 5.29336 0.713464 5.22985C0.796371 5.16635 0.895913 5.12824 1.00003 5.12016L4.51003 4.60016C4.59863 4.59035 4.68311 4.55748 4.75505 4.50485C4.82699 4.45221 4.88387 4.38164 4.92003 4.30016L6.51003 1.09016C6.55333 0.996672 6.62247 0.917519 6.7093 0.862047C6.79612 0.806575 6.897 0.7771 7.00003 0.7771C7.10306 0.7771 7.20395 0.806575 7.29077 0.862047C7.37759 0.917519 7.44673 0.996672 7.49003 1.09016Z" fill="white"/>
<path d="M7.49003 1.09016L9.08003 4.30016C9.1162 4.38164 9.17308 4.45221 9.24502 4.50485C9.31696 4.55748 9.40144 4.59035 9.49003 4.60016L13 5.12016C13.1017 5.13322 13.1975 5.17493 13.2763 5.24042C13.3551 5.3059 13.4137 5.39246 13.4451 5.48997C13.4766 5.58749 13.4796 5.69195 13.4539 5.79114C13.4283 5.89034 13.3749 5.98017 13.3 6.05016L10.77 8.56016C10.7055 8.62049 10.657 8.696 10.6291 8.77984C10.6011 8.86367 10.5946 8.95316 10.61 9.04016L11.22 12.5701C11.2377 12.6716 11.2265 12.7759 11.1878 12.8713C11.1491 12.9667 11.0844 13.0493 11.001 13.1098C10.9177 13.1702 10.819 13.206 10.7163 13.2132C10.6136 13.2203 10.5109 13.1985 10.42 13.1501L7.26003 11.4801C7.17912 11.4404 7.09017 11.4198 7.00003 11.4198C6.90989 11.4198 6.82095 11.4404 6.74003 11.4801L3.58003 13.1501C3.48912 13.1985 3.38647 13.2203 3.28376 13.2132C3.18105 13.206 3.0824 13.1702 2.99905 13.1098C2.91569 13.0493 2.85097 12.9667 2.81225 12.8713C2.77354 12.7759 2.76237 12.6716 2.78003 12.5701L3.39003 9.00016C3.40549 8.91316 3.39895 8.82367 3.37101 8.73984C3.34307 8.656 3.2946 8.58049 3.23003 8.52016L0.670033 6.05016C0.594296 5.97826 0.541033 5.88593 0.516697 5.78438C0.492361 5.68282 0.497997 5.57638 0.53292 5.47796C0.567844 5.37954 0.630557 5.29336 0.713464 5.22985C0.796371 5.16635 0.895913 5.12824 1.00003 5.12016L4.51003 4.60016C4.59863 4.59035 4.68311 4.55748 4.75505 4.50485C4.82699 4.45221 4.88387 4.38164 4.92003 4.30016L6.51003 1.09016C6.55333 0.996672 6.62247 0.917519 6.7093 0.862047C6.79612 0.806575 6.897 0.7771 7.00003 0.7771C7.10306 0.7771 7.20395 0.806575 7.29077 0.862047C7.37759 0.917519 7.44673 0.996672 7.49003 1.09016Z" fill="#009EE0"/>
<path d="M7.49003 1.09016L9.08003 4.30016C9.1162 4.38164 9.17308 4.45221 9.24502 4.50485C9.31696 4.55748 9.40144 4.59035 9.49003 4.60016L13 5.12016C13.1017 5.13322 13.1975 5.17493 13.2763 5.24042C13.3551 5.3059 13.4137 5.39246 13.4451 5.48997C13.4766 5.58749 13.4796 5.69195 13.4539 5.79114C13.4283 5.89034 13.3749 5.98017 13.3 6.05016L10.77 8.56016C10.7055 8.62049 10.657 8.696 10.6291 8.77984C10.6011 8.86367 10.5946 8.95316 10.61 9.04016L11.22 12.5701C11.2377 12.6716 11.2265 12.7759 11.1878 12.8713C11.1491 12.9667 11.0844 13.0493 11.001 13.1098C10.9177 13.1702 10.819 13.206 10.7163 13.2132C10.6136 13.2203 10.5109 13.1985 10.42 13.1501L7.26003 11.4801C7.17912 11.4404 7.09017 11.4198 7.00003 11.4198C6.90989 11.4198 6.82095 11.4404 6.74003 11.4801L3.58003 13.1501C3.48912 13.1985 3.38647 13.2203 3.28376 13.2132C3.18105 13.206 3.0824 13.1702 2.99905 13.1098C2.91569 13.0493 2.85097 12.9667 2.81225 12.8713C2.77354 12.7759 2.76237 12.6716 2.78003 12.5701L3.39003 9.00016C3.40549 8.91316 3.39895 8.82367 3.37101 8.73984C3.34307 8.656 3.2946 8.58049 3.23003 8.52016L0.670033 6.05016C0.594296 5.97826 0.541033 5.88593 0.516697 5.78438C0.492361 5.68282 0.497997 5.57638 0.53292 5.47796C0.567844 5.37954 0.630557 5.29336 0.713464 5.22985C0.796371 5.16635 0.895913 5.12824 1.00003 5.12016L4.51003 4.60016C4.59863 4.59035 4.68311 4.55748 4.75505 4.50485C4.82699 4.45221 4.88387 4.38164 4.92003 4.30016L6.51003 1.09016C6.55333 0.996672 6.62247 0.917519 6.7093 0.862047C6.79612 0.806575 6.897 0.7771 7.00003 0.7771C7.10306 0.7771 7.20395 0.806575 7.29077 0.862047C7.37759 0.917519 7.44673 0.996672 7.49003 1.09016Z" stroke="#009EE0" stroke-linecap="round" stroke-linejoin="round"/>
</svg>
