<svg width="14" height="14" viewBox="0 0 14 14" fill="none" xmlns="http://www.w3.org/2000/svg">
<g clip-path="url(#clip0_1222_39503)">
<path d="M1.43591 12.3299C1.4395 12.5383 1.50013 12.7417 1.6112 12.918C1.72227 13.0943 1.87954 13.2368 2.06591 13.3299C2.25202 13.4351 2.46215 13.4904 2.67591 13.4904C2.88967 13.4904 3.09981 13.4351 3.28591 13.3299L11.9359 7.97994C12.1241 7.88927 12.2829 7.74732 12.3941 7.57042C12.5052 7.39352 12.5641 7.18885 12.5641 6.97994C12.5641 6.77103 12.5052 6.56636 12.3941 6.38946C12.2829 6.21256 12.1241 6.07061 11.9359 5.97994L3.28591 0.669939C3.09981 0.564782 2.88967 0.509521 2.67591 0.509521C2.46215 0.509521 2.25202 0.564782 2.06591 0.669939C1.87954 0.763128 1.72227 0.905616 1.6112 1.08192C1.50013 1.25822 1.4395 1.4616 1.43591 1.66994V12.3299Z" stroke="#009EE0" stroke-linecap="round" stroke-linejoin="round"/>
</g>
<defs>
<clipPath id="clip0_1222_39503">
<rect width="14" height="14" fill="white"/>
</clipPath>
</defs>
</svg>
