<svg width="14" height="14" viewBox="0 0 14 14" fill="none" xmlns="http://www.w3.org/2000/svg">
<path d="M5.81234 11.0005L7.99033 13.1685C8.12396 13.3054 8.29104 13.4051 8.47503 13.4577C8.65902 13.5103 8.85355 13.5139 9.03937 13.4682C9.22635 13.4247 9.399 13.3339 9.54072 13.2044C9.68245 13.0749 9.78848 12.9112 9.84862 12.7289L13.4253 2.00876C13.5 1.8079 13.5154 1.58983 13.4697 1.38047C13.424 1.1711 13.3192 0.979261 13.1677 0.827739C13.0162 0.676216 12.8243 0.571388 12.615 0.525714C12.4056 0.48004 12.1875 0.495441 11.9867 0.570087L1.26653 4.14679C1.07795 4.2112 0.909996 4.32481 0.780022 4.47586C0.650048 4.62691 0.562769 4.80993 0.527207 5.006C0.4905 5.18433 0.498671 5.36898 0.550987 5.54337C0.603303 5.71775 0.698124 5.87641 0.826931 6.00508L3.56441 8.74256L3.47449 12.2094L5.81234 11.0005Z" stroke="#009EE0" stroke-linecap="round" stroke-linejoin="round"/>
<path d="M13.1057 0.789795L3.56445 8.74247" stroke="#009EE0" stroke-linecap="round" stroke-linejoin="round"/>
</svg>
