<svg width="14" height="14" viewBox="0 0 14 14" fill="none" xmlns="http://www.w3.org/2000/svg">
<path d="M9.5 6.5C9.5 7.16304 9.23661 7.79893 8.76777 8.26777C8.29893 8.73661 7.66304 9 7 9C6.33696 9 5.70107 8.73661 5.23223 8.26777C4.76339 7.79893 4.5 7.16304 4.5 6.5V3C4.5 2.33696 4.76339 1.70107 5.23223 1.23223C5.70107 0.763392 6.33696 0.5 7 0.5C7.66304 0.5 8.29893 0.763392 8.76777 1.23223C9.23661 1.70107 9.5 2.33696 9.5 3V6.5Z" stroke="#009EE0" stroke-linecap="round" stroke-linejoin="round"/>
<path d="M12 7C12.0013 7.59132 11.8858 8.17707 11.6602 8.72363C11.4345 9.27019 11.1031 9.76679 10.6849 10.1849C10.2668 10.603 9.77021 10.9345 9.22364 11.1601C8.67708 11.3858 8.09133 11.5013 7.50001 11.5H6.50001C5.90869 11.5013 5.32294 11.3858 4.77638 11.1601C4.22982 10.9345 3.73322 10.603 3.31509 10.1849C2.89696 9.76679 2.56555 9.27019 2.33987 8.72363C2.11419 8.17707 1.99869 7.59132 2.00001 7" stroke="#009EE0" stroke-linecap="round" stroke-linejoin="round"/>
<path d="M7 11.5V13.5" stroke="#009EE0" stroke-linecap="round" stroke-linejoin="round"/>
</svg>
