<svg xmlns="http://www.w3.org/2000/svg" version="1.1" xmlns:xlink="http://www.w3.org/1999/xlink" xmlns:svgjs="http://svgjs.dev/svgjs" width="1500" height="935" viewBox="0 0 1500 935"><g transform="matrix(1,0,0,1,-0.9090909090909918,0.3785425101214628)"><svg viewBox="0 0 396 247" data-background-color="#ffffff" preserveAspectRatio="xMidYMid meet" height="935" width="1500" xmlns="http://www.w3.org/2000/svg" xmlns:xlink="http://www.w3.org/1999/xlink"><g id="tight-bounds" transform="matrix(1,0,0,1,0.2400000000000091,-0.09999999999999432)"><svg viewBox="0 0 395.52 247.2" height="247.2" width="395.52"><g><svg viewBox="0 0 395.52 247.2" height="247.2" width="395.52"><g transform="matrix(1,0,0,1,0,80.23635544430537)"><svg viewBox="0 0 395.52 86.72728911138924" height="86.72728911138924" width="395.52"><g><svg viewBox="0 0 395.52 86.72728911138924" height="86.72728911138924" width="395.52"><g><svg viewBox="0 0 395.52 86.72728911138924" height="86.72728911138924" width="395.52"><g><svg viewBox="0 0 395.52 86.72728911138924" height="86.72728911138924" width="395.52"><g id="textblocktransform"><svg viewBox="0 0 395.52 86.72728911138924" height="86.72728911138924" width="395.52" id="textblock"><g><svg viewBox="0 0 395.52 86.72728911138924" height="86.72728911138924" width="395.52"><g transform="matrix(1,0,0,1,0,0)"><svg width="395.52" viewBox="-3.1166666666666667 -40.7 200.75666666666666 44.800000000000004" height="86.72728911138924" data-palette-color="#009ee0"><path d="M5.65 0L5.65 0Q2.3-0.5 1.3-3.08 0.3-5.65 1.7-9.6L1.7-9.6 8.3-28.35Q9.2-30.95 10.38-32.8 11.55-34.65 13.33-35.65 15.1-36.65 17.75-36.65L17.75-36.65Q21.75-36.65 23.78-34.45 25.8-32.25 27.15-28.35L27.15-28.35 33.7-9.6Q35.1-5.65 34.23-3.08 33.35-0.5 29.95 0L29.95 0Q27.2 0.35 25.18-0.65 23.15-1.65 22.75-3.9L22.75-3.9Q22.45-5.4 22.68-6.4 22.9-7.4 23.1-8L23.1-8Q23.25-8.5 23.13-8.97 23-9.45 22.35-9.45L22.35-9.45 13.05-9.45Q12.4-9.45 12.28-8.97 12.15-8.5 12.35-8L12.35-8Q12.55-7.4 12.75-6.4 12.95-5.4 12.7-3.9L12.7-3.9Q12.3-1.65 10.35-0.65 8.4 0.35 5.65 0ZM14.1-16.45L21.4-16.45 18.8-24.6Q18.7-25.1 18.48-25.38 18.25-25.65 17.75-25.65L17.75-25.65Q17.25-25.65 17.03-25.38 16.8-25.1 16.65-24.6L16.65-24.6 14.1-16.45ZM42.25 0.1L42.25 0.1Q39.95 0.1 38.5-1.3 37.05-2.7 37.05-4.85L37.05-4.85 37.05-31.3Q37.05-33.5 38.47-35 39.9-36.5 42.25-36.5L42.25-36.5Q44.75-36.5 46.17-35.02 47.6-33.55 47.6-31.4L47.6-31.4 47.6-4.85Q47.6-2.7 46.07-1.3 44.55 0.1 42.25 0.1ZM76.99 0.1L76.99 0.1Q72.09 0.1 68.17-1.93 64.24-3.95 61.99-7.95 59.74-11.95 59.74-17.8L59.74-17.8Q59.74-23.65 62.02-27.9 64.29-32.15 68.27-34.43 72.24-36.7 77.34-36.7L77.34-36.7Q83.24-36.7 86.39-35.05 89.54-33.4 89.54-30.15L89.54-30.15Q89.54-27.65 88.19-26.03 86.84-24.4 84.49-24.4L84.49-24.4Q82.49-24.4 80.62-24.93 78.74-25.45 76.24-25.45L76.24-25.45Q73.04-25.45 71.19-23.6 69.34-21.75 69.34-18.75L69.34-18.75Q69.34-15.8 71.19-13.83 73.04-11.85 76.24-11.85L76.24-11.85Q77.94-11.85 79.37-12.13 80.79-12.4 82.17-12.7 83.54-13 85.14-13L85.14-13Q87.79-13 89.04-11.28 90.29-9.55 90.29-7L90.29-7Q90.29-4.45 88.44-2.88 86.59-1.3 83.57-0.6 80.54 0.1 76.99 0.1ZM98.19-0.15L98.19-0.15Q95.89-0.15 94.39-1.55 92.89-2.95 92.89-5.1L92.89-5.1 92.89-31.55Q92.89-33.75 94.34-35.23 95.79-36.7 98.14-36.7L98.14-36.7Q100.64-36.7 102.04-35.23 103.44-33.75 103.44-31.65L103.44-31.65 103.44-22.4 112.74-22.4 112.74-31.55Q112.74-33.75 114.19-35.23 115.64-36.7 118.09-36.7L118.09-36.7Q120.54-36.7 121.94-35.23 123.34-33.75 123.34-31.65L123.34-31.65 123.34-5.1Q123.34-2.95 121.87-1.55 120.39-0.15 118.19-0.15L118.19-0.15Q115.79-0.15 114.27-1.55 112.74-2.95 112.74-5.1L112.74-5.1 112.74-15.05 103.44-15.05 103.44-5.1Q103.44-2.95 101.97-1.55 100.49-0.15 98.19-0.15ZM130.54 0L130.54 0Q127.19-0.5 126.19-3.08 125.19-5.65 126.59-9.6L126.59-9.6 133.19-28.35Q134.09-30.95 135.26-32.8 136.44-34.65 138.21-35.65 139.99-36.65 142.64-36.65L142.64-36.65Q146.64-36.65 148.66-34.45 150.69-32.25 152.04-28.35L152.04-28.35 158.59-9.6Q159.99-5.65 159.11-3.08 158.24-0.5 154.84 0L154.84 0Q152.09 0.35 150.06-0.65 148.04-1.65 147.64-3.9L147.64-3.9Q147.34-5.4 147.56-6.4 147.79-7.4 147.99-8L147.99-8Q148.14-8.5 148.01-8.97 147.89-9.45 147.24-9.45L147.24-9.45 137.94-9.45Q137.29-9.45 137.16-8.97 137.04-8.5 137.24-8L137.24-8Q137.44-7.4 137.64-6.4 137.84-5.4 137.59-3.9L137.59-3.9Q137.19-1.65 135.24-0.65 133.29 0.35 130.54 0ZM138.99-16.45L146.29-16.45 143.69-24.6Q143.59-25.1 143.36-25.38 143.14-25.65 142.64-25.65L142.64-25.65Q142.14-25.65 141.91-25.38 141.69-25.1 141.54-24.6L141.54-24.6 138.99-16.45ZM166.44-25.3L166.44-25.3Q163.94-25.3 162.36-26.75 160.79-28.2 160.79-30.75L160.79-30.75Q160.79-33.25 162.21-34.77 163.64-36.3 166.44-36.3L166.44-36.3 187.99-36.3Q190.79-36.3 192.21-34.77 193.64-33.25 193.64-30.75L193.64-30.75Q193.64-28.2 192.06-26.75 190.49-25.3 187.99-25.3L187.99-25.3Q186.29-25.3 185.26-25.68 184.24-26.05 183.59-26.58 182.94-27.1 182.34-27.48 181.74-27.85 180.84-27.85L180.84-27.85 180.39-26.95Q180.59-26.5 181.09-25.68 181.59-24.85 182.04-23.33 182.49-21.8 182.49-19.2L182.49-19.2 182.49-4.75Q182.49-2.7 180.96-1.35 179.44 0 177.24 0L177.24 0Q174.99 0 173.46-1.35 171.94-2.7 171.94-4.75L171.94-4.75 171.94-19.2Q171.94-21.8 172.39-23.33 172.84-24.85 173.36-25.68 173.89-26.5 174.09-26.95L174.09-26.95 173.59-27.85Q172.69-27.85 172.09-27.48 171.49-27.1 170.84-26.58 170.19-26.05 169.19-25.68 168.19-25.3 166.44-25.3Z" opacity="1" transform="matrix(1,0,0,1,0,0)" fill="#009ee0" class="wordmark-text-0" data-fill-palette-color="primary" id="text-0"></path></svg></g></svg></g></svg></g></svg></g></svg></g></svg></g></svg></g></svg></g><defs></defs></svg><rect width="395.52" height="247.2" fill="none" stroke="none" visibility="hidden"></rect></g></svg></g></svg>