<svg xmlns="http://www.w3.org/2000/svg" viewBox="0 0 114.75 122.88">
  <path d="M64.94,8.92 L69.09,32.73 H82.06 V20.46 L79.87,18.95 L77.89,15.5 L77.89,9.6 L82.92,4.57 L88.83,4.57 L93.86,9.6 
  L93.86,15.5 L91.88,18.95 L89.69,20.46 V32.73 H69.43 L69.66,43.05 H100.1 L103.96,39.36 L109.87,39.36 L114.75,44.24 
  L114.75,50.15 L109.87,55.03 L103.96,55.03 L100.1,51.34 H69.67 L69.43,63.29 H106.64 V88.82 L110.5,85.13 L116.41,85.13 
  L121.29,90.01 L121.29,95.92 L116.41,100.8 L110.5,100.8 L106.64,97.11 V75.66 H69.16 L68.61,85.39 H79.65 V99.05 L83.51,95.36 
  L89.42,95.36 L94.3,100.24 L94.3,106.15 L89.42,111.03 L83.51,111.03 L79.65,107.34 V92.28 H68.1 L67.75,96.38 L67.41,103 
  L53.12,122.52 L37.42,118.57 L30.39,107.74 L24.92,106.7 L14.12,99.29 L8.24,86.61 L8.5,78.72 L3.54,72.79 L0,60.6 L4.42,47.8 
  L11.35,41.1 L11.34,38.74 L17.3,22.71 L30.37,14.91 L30.39,12.82 L31.02,10.73 L39.72,0.61 L53.06,0 L64.94,8.92 Z 
  M30.77,99.21 L44.91,84.73 L48.68,86.53 L46.88,92.1 L36.46,104.46 L40.68,112.26 L49.6,114.62 L53.11,102.34 L54.29,96.38 
  L54.29,20.49 L52.36,12.77 L47.86,8.42 L40.32,8.42 L34.23,14.51 L33.44,24 L27.64,29.8 L20.81,40.71 L20.8,44.33 L18.82,48.54 
  L13.06,54.3 L12.29,62.14 L14.52,69.74 L19.48,75.07 L18.8,79.96 L22.67,88.22 L30.77,99.21 Z 
  M31.71,41.1 L37.53,41.15 L37.48,46.97 L31.89,53.46 L31.32,59.48 L35.88,67 L35.25,72.79 L29.46,73.42 L23.08,59.51 
  L23.96,52.56 L31.71,41.1 Z" 
  stroke="#009EE0" 
  stroke-width="6" 
  stroke-linecap="square" 
  stroke-linejoin="miter" 
  fill="none"/>
</svg>