<svg width="14" height="14" viewBox="0 0 14 14" fill="none" xmlns="http://www.w3.org/2000/svg">
  <!-- Frame/border -->
  <path d="M2 1.5C1.17157 1.5 0.5 2.17157 0.5 3V11C0.5 11.8284 1.17157 12.5 2 12.5H12C12.8284 12.5 13.5 11.8284 13.5 11V3C13.5 2.17157 12.8284 1.5 12 1.5H2ZM1.5 3C1.5 2.72386 1.72386 2.5 2 2.5H12C12.2761 2.5 12.5 2.72386 12.5 3V8.29289L10.3536 6.14645C10.1583 5.95118 9.84171 5.95118 9.64645 6.14645L7 8.79289L5.35355 7.14645C5.15829 6.95118 4.84171 6.95118 4.64645 7.14645L1.5 10.2929V3ZM1.5 11V11.7071L4.64645 8.56066L6.29289 10.2071C6.48816 10.4024 6.80474 10.4024 7 10.2071L9.64645 7.56066L12.5 10.5V11C12.5 11.2761 12.2761 11.5 12 11.5H2C1.72386 11.5 1.5 11.2761 1.5 11Z" fill="#009EE0"/>
  
  <!-- Sun/circle -->
  <circle cx="4.5" cy="5" r="1" fill="#009EE0"/>
</svg>