<svg xmlns="http://www.w3.org/2000/svg" xmlns:xlink="http://www.w3.org/1999/xlink" viewBox="0,0,256,256" width="24px" height="24px" fill-rule="nonzero"><g fill="#ffffff" fill-rule="nonzero" stroke="none" stroke-width="1" stroke-linecap="butt" stroke-linejoin="miter" stroke-miterlimit="10" stroke-dasharray="" stroke-dashoffset="0" font-family="none" font-weight="none" font-size="none" text-anchor="none" style="mix-blend-mode: normal"><g transform="scale(10.66667,10.66667)"><path d="M19,22h-14c-1.654,0 -3,-1.346 -3,-3v-11h2v11c0,0.552 0.449,1 1,1h14c0.552,0 1,-0.448 1,-1v-2h2v2c0,1.654 -1.346,3 -3,3zM16.707,11.707l-1.414,-1.414l3.293,-3.293l-3.293,-3.293l1.414,-1.414l4.707,4.707z"></path><path d="M8,18h-2v-1c0,-6.065 4.935,-11 11,-11h3v2h-3c-4.963,0 -9,4.037 -9,9z"></path></g></g></svg>