<svg width="14" height="14" viewBox="0 0 14 14" fill="none" xmlns="http://www.w3.org/2000/svg">
<path d="M8 7C8.00471 5.78763 8.32421 4.59726 8.92723 3.54548C9.53025 2.4937 10.3961 1.61657 11.44 1C10.6659 0.679515 9.83775 0.509809 9 0.5C7.27609 0.5 5.62279 1.18482 4.40381 2.40381C3.18482 3.62279 2.5 5.27609 2.5 7C2.5 8.72391 3.18482 10.3772 4.40381 11.5962C5.62279 12.8152 7.27609 13.5 9 13.5C9.84786 13.494 10.6866 13.3242 11.47 13C10.4205 12.3872 9.54869 11.5117 8.94026 10.4596C8.33183 9.40759 8.00779 8.21528 8 7Z" stroke="#B4388D" stroke-linecap="round" stroke-linejoin="round"/>
</svg>
